# xmcd
#
# Track frame offsets:
#	150
#	13491
#	35541
#	44053
#	60632
#	71345
#	87390
#	95187
#	112201
#	122479
#
# Disc length: 1780 seconds
#
# Revision: 1
# Processed by: cddbd v1.5.2PL0 Copyright (c) Steve Scherf et al.
# Submitted via: audiograbber 1.83.01
#
DISCID=9406f20a
DTITLE=Mississippi John Hurt - Candy Man Blues
DYEAR=1963
DGENRE=Blues
TTITLE0=Candy Man Blues
TTITLE1=Talkin' Casey
TTITLE2=My Creole Belle
TTITLE3=Noboby Cares For Me
TTITLE4=Avalon Blues
TTITLE5=Joe Turner Blues
TTITLE6=Salty Dog
TTITLE7=Casey Jones
TTITLE8=Louis Collins
TTITLE9=Spike Driver Blues
EXTD=
EXTT0=
EXTT1=
EXTT2=
EXTT3=
EXTT4=
EXTT5=
EXTT6=
EXTT7=
EXTT8=
EXTT9=
PLAYORDER=
